<svg width="61" height="16" viewBox="0 0 61 16" fill="none" xmlns="http://www.w3.org/2000/svg">
<rect width="61" height="16" rx="8" fill="#7E7312" fill-opacity="0.4"/>
<path d="M12.1079 6.52C12.4545 6.52 12.7639 6.592 13.0359 6.736C13.3132 6.88 13.5292 7.09333 13.6839 7.376C13.8439 7.65867 13.9239 8 13.9239 8.4L13.9239 11H13.0199L13.0199 8.536C13.0199 8.14133 12.9212 7.84 12.7239 7.632C12.5265 7.41867 12.2572 7.312 11.9159 7.312C11.5745 7.312 11.3025 7.41867 11.0999 7.632C10.9025 7.84 10.8039 8.14133 10.8039 8.536L10.8039 11H9.89988L9.89988 8.536C9.89988 8.14133 9.80121 7.84 9.60388 7.632C9.40654 7.41867 9.13721 7.312 8.79588 7.312C8.45454 7.312 8.18254 7.41867 7.97988 7.632C7.78254 7.84 7.68388 8.14133 7.68388 8.536L7.68388 11H6.77188L6.77188 6.592H7.68388V7.096C7.83321 6.91467 8.02254 6.77333 8.25188 6.672C8.48121 6.57067 8.72654 6.52 8.98788 6.52C9.33988 6.52 9.65454 6.59467 9.93188 6.744C10.2092 6.89333 10.4225 7.10933 10.5719 7.392C10.7052 7.12533 10.9132 6.91467 11.1959 6.76C11.4785 6.6 11.7825 6.52 12.1079 6.52ZM16.9964 11.072C16.5804 11.072 16.2044 10.9787 15.8684 10.792C15.5324 10.6 15.2684 10.3333 15.0764 9.992C14.8844 9.64533 14.7884 9.24533 14.7884 8.792C14.7884 8.344 14.887 7.94667 15.0844 7.6C15.2817 7.25333 15.551 6.98667 15.8924 6.8C16.2337 6.61333 16.615 6.52 17.0364 6.52C17.4577 6.52 17.839 6.61333 18.1804 6.8C18.5217 6.98667 18.791 7.25333 18.9884 7.6C19.1857 7.94667 19.2844 8.344 19.2844 8.792C19.2844 9.24 19.183 9.63733 18.9804 9.984C18.7777 10.3307 18.5004 10.6 18.1484 10.792C17.8017 10.9787 17.4177 11.072 16.9964 11.072ZM16.9964 10.28C17.231 10.28 17.4497 10.224 17.6524 10.112C17.8604 10 18.0284 9.832 18.1564 9.608C18.2844 9.384 18.3484 9.112 18.3484 8.792C18.3484 8.472 18.287 8.20267 18.1644 7.984C18.0417 7.76 17.879 7.592 17.6764 7.48C17.4737 7.368 17.255 7.312 17.0204 7.312C16.7857 7.312 16.567 7.368 16.3644 7.48C16.167 7.592 16.0097 7.76 15.8924 7.984C15.775 8.20267 15.7164 8.472 15.7164 8.792C15.7164 9.26667 15.8364 9.63467 16.0764 9.896C16.3217 10.152 16.6284 10.28 16.9964 10.28ZM21.7859 11.072C21.4393 11.072 21.1273 11.0107 20.8499 10.888C20.5779 10.76 20.3619 10.5893 20.2019 10.376C20.0419 10.1573 19.9566 9.91467 19.9459 9.648H20.8899C20.9059 9.83467 20.9939 9.992 21.1539 10.12C21.3193 10.2427 21.5246 10.304 21.7699 10.304C22.0259 10.304 22.2233 10.256 22.3619 10.16C22.5059 10.0587 22.5779 9.93067 22.5779 9.776C22.5779 9.61067 22.4979 9.488 22.3379 9.408C22.1833 9.328 21.9353 9.24 21.5939 9.144C21.2633 9.05333 20.9939 8.96533 20.7859 8.88C20.5779 8.79467 20.3966 8.664 20.2419 8.488C20.0926 8.312 20.0179 8.08 20.0179 7.792C20.0179 7.55733 20.0873 7.344 20.2259 7.152C20.3646 6.95467 20.5619 6.8 20.8179 6.688C21.0793 6.576 21.3779 6.52 21.7139 6.52C22.2153 6.52 22.6179 6.648 22.9219 6.904C23.2313 7.15467 23.3966 7.49867 23.4179 7.936H22.5059C22.4899 7.73867 22.4099 7.58133 22.2659 7.464C22.1219 7.34667 21.9273 7.288 21.6819 7.288C21.4419 7.288 21.2579 7.33333 21.1299 7.424C21.0019 7.51467 20.9379 7.63467 20.9379 7.784C20.9379 7.90133 20.9806 8 21.0659 8.08C21.1513 8.16 21.2553 8.224 21.3779 8.272C21.5006 8.31467 21.6819 8.37067 21.9219 8.44C22.2419 8.52533 22.5033 8.61333 22.7059 8.704C22.9139 8.78933 23.0926 8.91733 23.2419 9.088C23.3913 9.25867 23.4686 9.48533 23.4739 9.768C23.4739 10.0187 23.4046 10.2427 23.2659 10.44C23.1273 10.6373 22.9299 10.792 22.6739 10.904C22.4233 11.016 22.1273 11.072 21.7859 11.072ZM25.5234 7.336V9.776C25.5234 9.94133 25.5607 10.0613 25.6354 10.136C25.7154 10.2053 25.8487 10.24 26.0354 10.24H26.5954V11H25.8754C25.4647 11 25.15 10.904 24.9314 10.712C24.7127 10.52 24.6034 10.208 24.6034 9.776V7.336H24.0834V6.592H24.6034V5.496H25.5234V6.592H26.5954V7.336H25.5234ZM30.4261 7.232C30.5594 7.008 30.7354 6.83467 30.9541 6.712C31.1781 6.584 31.4421 6.52 31.7461 6.52V7.464H31.5141C31.1567 7.464 30.8847 7.55467 30.6981 7.736C30.5167 7.91733 30.4261 8.232 30.4261 8.68V11H29.5141V6.592H30.4261V7.232ZM36.6244 8.688C36.6244 8.85333 36.6137 9.00267 36.5924 9.136L33.2244 9.136C33.251 9.488 33.3817 9.77067 33.6164 9.984C33.851 10.1973 34.139 10.304 34.4804 10.304C34.971 10.304 35.3177 10.0987 35.5204 9.688L36.5044 9.688C36.371 10.0933 36.1284 10.4267 35.7764 10.688C35.4297 10.944 34.9977 11.072 34.4804 11.072C34.059 11.072 33.6804 10.9787 33.3444 10.792C33.0137 10.6 32.7524 10.3333 32.5604 9.992C32.3737 9.64533 32.2804 9.24533 32.2804 8.792C32.2804 8.33867 32.371 7.94133 32.5524 7.6C32.739 7.25333 32.9977 6.98667 33.3284 6.8C33.6644 6.61333 34.0484 6.52 34.4804 6.52C34.8964 6.52 35.267 6.61067 35.5924 6.792C35.9177 6.97333 36.171 7.22933 36.3524 7.56C36.5337 7.88533 36.6244 8.26133 36.6244 8.688ZM35.6724 8.4C35.667 8.064 35.547 7.79467 35.3124 7.592C35.0777 7.38933 34.787 7.288 34.4404 7.288C34.1257 7.288 33.8564 7.38933 33.6324 7.592C33.4084 7.78933 33.275 8.05867 33.2324 8.4H35.6724ZM37.2179 8.792C37.2179 8.33867 37.3085 7.94133 37.4899 7.6C37.6765 7.25333 37.9325 6.98667 38.2579 6.8C38.5832 6.61333 38.9565 6.52 39.3779 6.52C39.9112 6.52 40.3512 6.648 40.6979 6.904C41.0499 7.15467 41.2872 7.51467 41.4099 7.984H40.4259C40.3459 7.76533 40.2179 7.59467 40.0419 7.472C39.8659 7.34933 39.6445 7.288 39.3779 7.288C39.0045 7.288 38.7059 7.42133 38.4819 7.688C38.2632 7.94933 38.1539 8.31733 38.1539 8.792C38.1539 9.26667 38.2632 9.63733 38.4819 9.904C38.7059 10.1707 39.0045 10.304 39.3779 10.304C39.9059 10.304 40.2552 10.072 40.4259 9.608H41.4099C41.2819 10.056 41.0419 10.4133 40.6899 10.68C40.3379 10.9413 39.9005 11.072 39.3779 11.072C38.9565 11.072 38.5832 10.9787 38.2579 10.792C37.9325 10.6 37.6765 10.3333 37.4899 9.992C37.3085 9.64533 37.2179 9.24533 37.2179 8.792ZM46.3588 8.688C46.3588 8.85333 46.3481 9.00267 46.3268 9.136H42.9588C42.9854 9.488 43.1161 9.77067 43.3508 9.984C43.5854 10.1973 43.8734 10.304 44.2148 10.304C44.7054 10.304 45.0521 10.0987 45.2548 9.688H46.2387C46.1054 10.0933 45.8628 10.4267 45.5108 10.688C45.1641 10.944 44.7321 11.072 44.2148 11.072C43.7934 11.072 43.4148 10.9787 43.0788 10.792C42.7481 10.6 42.4868 10.3333 42.2948 9.992C42.1081 9.64533 42.0148 9.24533 42.0148 8.792C42.0148 8.33867 42.1054 7.94133 42.2868 7.6C42.4734 7.25333 42.7321 6.98667 43.0628 6.8C43.3988 6.61333 43.7828 6.52 44.2148 6.52C44.6308 6.52 45.0014 6.61067 45.3268 6.792C45.6521 6.97333 45.9054 7.22933 46.0868 7.56C46.2681 7.88533 46.3588 8.26133 46.3588 8.688ZM45.4068 8.4C45.4014 8.064 45.2814 7.79467 45.0468 7.592C44.8121 7.38933 44.5214 7.288 44.1748 7.288C43.8601 7.288 43.5908 7.38933 43.3668 7.592C43.1428 7.78933 43.0094 8.05867 42.9668 8.4H45.4068ZM49.4803 6.52C49.8269 6.52 50.1363 6.592 50.4083 6.736C50.6856 6.88 50.9016 7.09333 51.0563 7.376C51.2109 7.65867 51.2883 8 51.2883 8.4V11H50.3843V8.536C50.3843 8.14133 50.2856 7.84 50.0883 7.632C49.8909 7.41867 49.6216 7.312 49.2803 7.312C48.9389 7.312 48.6669 7.41867 48.4643 7.632C48.2669 7.84 48.1683 8.14133 48.1683 8.536V11H47.2563V6.592L48.1683 6.592V7.096C48.3176 6.91467 48.5069 6.77333 48.7363 6.672C48.9709 6.57067 49.2189 6.52 49.4803 6.52ZM53.5156 7.336V9.776C53.5156 9.94133 53.5529 10.0613 53.6276 10.136C53.7076 10.2053 53.8409 10.24 54.0276 10.24H54.5876V11H53.8676C53.4569 11 53.1422 10.904 52.9236 10.712C52.7049 10.52 52.5956 10.208 52.5956 9.776V7.336H52.0756V6.592H52.5956V5.496H53.5156V6.592H54.5876V7.336H53.5156Z" fill="#DDF163"/>
</svg>
